<svg width="236" height="200" xmlns="http://www.w3.org/2000/svg"><rect width="100%" height="100%" fill="#fff"/><style xmlns="http://www.w3.org/1999/xhtml">@import url('https://cdn.jsdelivr.net/gh/orioncactus/pretendard/dist/web/static/pretendard.css');text{font-family:'Pretendard','Noto Sans KR',sans-serif;}</style><g transform="translate(36,6)"><g><line x1="0" x2="160" y1="109.33333333333334" y2="109.33333333333334" style="stroke: rgb(170, 170, 170); stroke-dasharray: 2; stroke-opacity: 0.4;"/><line x1="0" x2="160" y1="54.66666666666667" y2="54.66666666666667" style="stroke: rgb(170, 170, 170); stroke-dasharray: 2; stroke-opacity: 0.4;"/><line x1="0" x2="160" y1="0" y2="0" style="stroke: rgb(170, 170, 170); stroke-dasharray: 2; stroke-opacity: 0.4;"/></g><line x1="0" x2="160" y1="164" y2="164" style="stroke: rgb(54, 54, 54); stroke-opacity: 0.4;"/><g fill="none" font-size="10" font-family="sans-serif" text-anchor="end"><g class="tick" opacity="1" transform="translate(0,164)"><line stroke="currentColor" x2="0"/><text fill="currentColor" x="-8" dy="0.32em" style="font-size: 13px; fill: rgb(153, 153, 153); font-family: Pretendard, &quot;Noto Sans KR&quot;, sans-serif;">0</text></g><g class="tick" opacity="1" transform="translate(0,109.33333333333334)"><line stroke="currentColor" x2="0"/><text fill="currentColor" x="-8" dy="0.32em" style="font-size: 13px; fill: rgb(153, 153, 153); font-family: Pretendard, &quot;Noto Sans KR&quot;, sans-serif;">5</text></g><g class="tick" opacity="1" transform="translate(0,54.66666666666667)"><line stroke="currentColor" x2="0"/><text fill="currentColor" x="-8" dy="0.32em" style="font-size: 13px; fill: rgb(153, 153, 153); font-family: Pretendard, &quot;Noto Sans KR&quot;, sans-serif;">10</text></g><g class="tick" opacity="1" transform="translate(0,0)"><line stroke="currentColor" x2="0"/><text fill="currentColor" x="-8" dy="0.32em" style="font-size: 13px; fill: rgb(153, 153, 153); font-family: Pretendard, &quot;Noto Sans KR&quot;, sans-serif;">15</text></g></g><g transform="translate(0,164)" fill="none" font-size="10" font-family="sans-serif" text-anchor="middle"><g class="tick" opacity="1" transform="translate(0,0)"><line stroke="currentColor" y2="4"/><text fill="currentColor" y="12" dy="0.71em" style="font-size: 13px; fill: rgb(153, 153, 153); font-family: Pretendard, &quot;Noto Sans KR&quot;, sans-serif;">2000</text></g><g class="tick" opacity="1" transform="translate(40,0)"><line stroke="currentColor" y2="4"/><text fill="currentColor" y="12" dy="0.71em" style="font-size: 13px; fill: rgb(153, 153, 153); font-family: Pretendard, &quot;Noto Sans KR&quot;, sans-serif;">2005</text></g><g class="tick" opacity="1" transform="translate(80,0)"><line stroke="currentColor" y2="4"/><text fill="currentColor" y="12" dy="0.71em" style="font-size: 13px; fill: rgb(153, 153, 153); font-family: Pretendard, &quot;Noto Sans KR&quot;, sans-serif;">2010</text></g><g class="tick" opacity="1" transform="translate(120,0)"><line stroke="currentColor" y2="4"/><text fill="currentColor" y="12" dy="0.71em" style="font-size: 13px; fill: rgb(153, 153, 153); font-family: Pretendard, &quot;Noto Sans KR&quot;, sans-serif;">2015</text></g><g class="tick" opacity="1" transform="translate(160,0)"><line stroke="currentColor" y2="4"/><text fill="currentColor" y="12" dy="0.71em" style="font-size: 13px; fill: rgb(153, 153, 153); font-family: Pretendard, &quot;Noto Sans KR&quot;, sans-serif;">2020</text></g></g><g clip-path="url(#clip-area)"><path fill="rgba(164,164,164,0.18)" d="M0,82C13.333,78.173,26.667,74.347,40,74.347C53.333,74.347,66.667,77.627,80,77.627C93.333,77.627,106.667,65.236,120,61.227C133.333,57.218,146.667,55.396,160,53.573L160,164C146.667,164,133.333,164,120,164C106.667,164,93.333,164,80,164C66.667,164,53.333,164,40,164C26.667,164,13.333,164,0,164Z"/><path fill="none" stroke="#a4a4a4" stroke-width="2" stroke-linejoin="round" d="M0,82C13.333,78.173,26.667,74.347,40,74.347C53.333,74.347,66.667,77.627,80,77.627C93.333,77.627,106.667,65.236,120,61.227C133.333,57.218,146.667,55.396,160,53.573"/></g><text x="165" y="53.57333333333333" dominant-baseline="central" font-size="12px" fill="#a4a4a4" font-family="Pretendard,'Noto Sans KR',sans-serif" opacity="1">계열 B</text><g clip-path="url(#clip-area)"><path fill="rgba(101,101,255,0.18)" d="M0,118.08C13.333,108.331,26.667,98.582,40,89.653C53.333,80.724,66.667,73.071,80,64.507C93.333,55.942,106.667,47.742,120,38.267C133.333,28.791,146.667,18.222,160,7.653L160,164C146.667,164,133.333,164,120,164C106.667,164,93.333,164,80,164C66.667,164,53.333,164,40,164C26.667,164,13.333,164,0,164Z"/><path fill="none" stroke="#6565FF" stroke-width="2" stroke-linejoin="round" d="M0,118.08C13.333,108.331,26.667,98.582,40,89.653C53.333,80.724,66.667,73.071,80,64.507C93.333,55.942,106.667,47.742,120,38.267C133.333,28.791,146.667,18.222,160,7.653"/></g><text x="165" y="7.653333333333328" dominant-baseline="central" font-size="12px" fill="#6565FF" font-family="Pretendard,'Noto Sans KR',sans-serif" opacity="1">계열 A</text><rect width="160" height="164" fill="transparent" style="cursor: crosshair;"/><rect width="160" height="164" fill="transparent" style="cursor: crosshair;"/></g><defs><clipPath id="clip-area"><rect x="0" y="0" width="200" height="200"/></clipPath></defs></svg>